<?xml version="1.0" standalone="no"?>
<!DOCTYPE svg PUBLIC "-//W3C//DTD SVG 20010904//EN"
 "http://www.w3.org/TR/2001/REC-SVG-20010904/DTD/svg10.dtd">
<svg version="1.0" xmlns="http://www.w3.org/2000/svg"
 width="1654.000000pt" height="1654.000000pt" viewBox="0 0 1654.000000 1654.000000"
 preserveAspectRatio="xMidYMid meet">
<metadata>
Created by potrace 1.11, written by Peter Selinger 2001-2013
</metadata>
<g transform="translate(0.000000,1654.000000) scale(0.100000,-0.100000)"
fill="#000000" stroke="none">
<path d="M7189 16036 c-2 -2 -60 -6 -129 -10 -120 -6 -164 -9 -277 -21 -29 -3
-79 -7 -110 -11 -32 -3 -69 -7 -83 -9 -14 -2 -50 -7 -80 -10 -30 -3 -80 -10
-110 -15 -30 -5 -75 -12 -100 -15 -102 -14 -418 -77 -600 -120 -107 -26 -202
-48 -211 -50 -8 -2 -60 -14 -115 -28 -102 -26 -144 -35 -204 -44 -56 -8 -307
-60 -400 -83 -47 -11 -92 -23 -100 -24 -8 -2 -42 -11 -75 -20 -33 -10 -64 -18
-70 -19 -5 -2 -41 -11 -78 -22 l-68 -18 -53 54 c-113 117 -248 224 -321 255
-38 15 -37 16 -38 -41 0 -36 12 -186 17 -193 4 -8 18 -123 20 -170 1 -31 -3
-35 -39 -50 -147 -57 -309 -126 -475 -204 -47 -22 -99 -46 -117 -54 l-32 -14
-31 58 c-50 91 -118 255 -170 410 -48 146 -69 182 -98 177 -9 -2 -20 -4 -24
-4 -36 -4 -98 -190 -114 -341 -16 -142 -9 -498 10 -598 3 -12 6 -59 7 -103 5
-225 66 -425 162 -534 l37 -43 -27 -22 c-59 -46 -96 -130 -147 -335 -37 -149
-89 -428 -111 -600 -3 -22 -8 -56 -10 -75 -3 -19 -7 -57 -11 -85 -3 -27 -7
-61 -9 -75 -2 -14 -7 -61 -11 -105 -3 -44 -8 -87 -9 -96 -2 -8 -6 -58 -10
-110 -4 -52 -8 -110 -10 -129 -22 -236 -33 -850 -20 -1115 12 -253 15 -312 20
-355 2 -25 7 -76 10 -115 5 -64 9 -102 20 -190 2 -16 7 -52 10 -80 63 -506
193 -972 373 -1331 50 -101 71 -154 75 -194 3 -30 8 -66 11 -80 11 -60 24
-168 43 -355 15 -153 7 -1239 -12 -1635 -24 -510 -24 -1254 0 -1420 2 -14 7
-61 11 -105 3 -44 8 -87 9 -96 2 -9 6 -40 10 -70 9 -67 48 -222 69 -271 35
-82 133 -163 301 -246 303 -150 563 -237 777 -258 35 -3 74 -8 88 -10 32 -5
267 -5 300 0 14 2 48 7 75 10 82 10 217 38 255 53 8 4 17 7 20 8 39 9 127 45
191 76 208 102 292 186 416 414 60 112 170 347 238 510 21 50 43 104 50 120 7
17 36 91 65 165 28 74 56 144 61 155 31 71 391 1044 424 1150 7 22 29 84 49
138 l36 98 -53 -6 c-84 -11 -299 -13 -360 -4 -148 24 -254 100 -297 214 -21
55 -22 75 -20 235 1 96 3 211 5 255 11 280 18 490 19 554 1 73 0 75 -24 76
-14 1 -70 6 -125 10 -55 4 -108 8 -117 7 -10 0 -18 1 -18 4 0 3 25 49 56 102
68 118 147 279 169 347 25 74 24 148 -1 181 -23 31 -45 39 -131 48 -111 11
-229 25 -263 31 -14 2 -50 7 -80 10 -30 3 -66 8 -80 10 -39 7 -79 13 -150 21
-36 4 -68 9 -72 10 -5 1 -17 2 -28 3 -34 2 -23 28 37 87 87 86 348 247 400
247 16 0 13 -7 19 52 17 163 99 472 167 630 261 605 749 1094 1268 1269 113
38 313 82 430 93 94 10 436 10 514 0 578 -71 1057 -300 1448 -690 64 -65 111
-119 205 -242 56 -73 152 -265 191 -385 58 -178 76 -298 75 -500 0 -167 -8
-243 -41 -390 -71 -323 -204 -616 -400 -884 -48 -64 -46 -51 -28 -196 5 -35 8
-80 21 -265 13 -185 6 -636 -11 -745 -2 -14 -7 -57 -10 -96 -3 -39 -7 -80 -9
-90 -2 -11 -7 -46 -12 -79 -4 -33 -8 -62 -9 -65 -1 -6 -17 -123 -17 -130 0 -3
-4 -14 -8 -25 -4 -11 -11 -42 -14 -69 -4 -27 -10 -54 -12 -58 -3 -5 -8 -24
-11 -41 -15 -110 -143 -520 -219 -706 -177 -431 -426 -838 -719 -1171 -41 -47
-269 -275 -325 -325 -59 -54 -231 -191 -300 -240 -30 -22 -59 -43 -65 -48 -5
-5 -46 -32 -90 -60 -259 -169 -482 -280 -716 -358 -90 -30 -330 -94 -387 -104
-18 -3 -63 -12 -100 -20 -76 -16 -245 -43 -312 -51 -25 -3 -56 -7 -70 -9 -14
-3 -54 -8 -90 -11 -36 -3 -81 -7 -100 -9 -33 -4 -77 -7 -242 -20 -155 -13
-373 -18 -696 -18 -188 0 -341 -1 -339 -3 11 -11 265 -131 379 -180 231 -97
617 -217 848 -263 93 -19 102 -21 190 -35 90 -15 143 -23 225 -32 28 -3 65 -7
83 -10 176 -23 724 -24 902 0 14 2 56 7 93 10 37 4 76 9 86 11 10 2 42 6 72
10 30 4 56 8 59 10 3 2 26 6 51 9 25 3 106 20 180 36 74 17 144 33 156 35 58
13 273 79 393 121 279 97 620 257 865 407 107 66 294 192 381 257 107 81 111
81 44 6 -374 -419 -879 -773 -1411 -992 -198 -81 -517 -181 -703 -220 -70 -15
-176 -35 -206 -40 -19 -3 -60 -9 -90 -14 -30 -5 -77 -12 -105 -15 -27 -4 -60
-8 -73 -10 -13 -2 -53 -7 -90 -10 -37 -4 -83 -8 -102 -11 -168 -19 -785 -25
-1085 -11 -242 12 -400 23 -475 32 -19 2 -69 7 -110 11 -41 3 -83 8 -92 9 -9
2 -43 6 -75 10 -32 3 -71 8 -88 11 -127 19 -223 34 -240 37 -11 3 -40 8 -65
12 -40 7 -287 59 -332 71 -10 2 -27 6 -37 8 -11 3 -54 14 -96 26 -42 12 -84
23 -94 25 -10 2 -99 30 -197 63 -250 85 -482 185 -729 316 -40 21 -59 28 -45
16 39 -32 279 -212 335 -251 28 -19 52 -36 55 -39 14 -14 321 -209 378 -240
20 -11 51 -29 67 -40 64 -40 426 -226 555 -284 237 -107 521 -214 772 -291
147 -45 505 -139 573 -149 19 -3 54 -10 79 -16 57 -13 325 -57 395 -65 30 -4
61 -8 70 -10 9 -1 50 -6 91 -10 41 -3 86 -8 100 -10 14 -2 70 -7 125 -10 55
-4 120 -9 145 -11 62 -4 611 -5 690 0 84 5 235 16 280 21 19 2 81 9 137 15 56
6 111 13 124 15 12 3 45 7 73 10 28 3 58 8 66 10 8 2 33 6 55 10 66 10 95 15
225 41 156 32 136 27 260 59 58 14 115 28 127 31 103 21 549 168 711 235 53
22 102 42 107 43 6 1 27 10 49 19 21 9 40 17 42 17 3 0 36 16 75 35 39 19 74
35 77 35 10 0 -151 -111 -173 -120 -12 -4 -27 -15 -34 -24 -7 -9 -17 -16 -22
-16 -5 0 -37 -17 -71 -38 -114 -70 -483 -262 -503 -262 -3 0 -25 -9 -48 -19
-277 -126 -783 -283 -1132 -351 -60 -12 -117 -23 -126 -25 -9 -2 -34 -6 -55
-9 -22 -4 -77 -13 -124 -21 -47 -8 -105 -17 -130 -20 -25 -3 -56 -7 -70 -10
-14 -3 -50 -7 -80 -10 -30 -3 -71 -8 -90 -10 -19 -3 -62 -7 -95 -10 -33 -3
-80 -7 -105 -10 -383 -39 -1141 -50 -1485 -21 -16 2 -77 6 -135 11 -58 4 -113
9 -124 11 -10 2 -53 6 -95 9 -42 3 -83 8 -91 10 -8 2 -40 7 -70 10 -30 3 -66
8 -80 10 -14 2 -56 9 -95 15 -38 6 -132 22 -207 36 -177 32 -177 32 -196 38
-9 3 -28 7 -42 10 -51 9 -166 36 -197 45 -18 5 -33 8 -33 6 0 -3 -12 0 -27 6
-16 6 -59 19 -98 29 -143 37 -476 144 -560 180 -11 4 -72 28 -135 53 -403 158
-859 404 -1210 655 -305 218 -467 358 -754 647 l-159 160 79 -105 c43 -58 81
-107 84 -110 3 -3 41 -50 85 -105 44 -55 90 -111 102 -125 12 -14 30 -34 40
-46 166 -192 392 -428 574 -598 41 -38 97 -90 124 -116 39 -36 273 -233 390
-328 11 -9 92 -69 180 -134 88 -65 165 -122 170 -126 25 -20 310 -205 415
-269 267 -164 631 -353 900 -470 150 -65 153 -66 210 -91 136 -59 518 -192
741 -257 132 -39 408 -111 455 -120 16 -2 61 -12 99 -20 39 -9 93 -20 120 -25
28 -5 86 -16 130 -24 44 -8 98 -17 120 -20 22 -4 51 -8 65 -11 31 -5 93 -15
140 -21 179 -23 184 -23 360 -39 225 -21 419 -29 705 -28 223 0 490 9 568 18
16 2 72 7 125 10 54 4 99 9 102 10 3 2 43 6 90 10 47 4 87 8 90 10 3 2 34 6
70 10 36 3 72 8 80 10 8 3 31 7 50 9 68 9 167 26 295 51 72 15 143 29 160 32
62 11 396 96 530 134 139 40 452 142 490 159 11 5 68 27 127 50 692 259 1420
675 2038 1164 136 108 139 111 335 281 245 214 628 609 801 826 29 36 59 72
66 80 58 60 309 401 445 604 573 859 987 1881 1167 2885 15 80 18 101 31 183
3 17 7 43 10 57 2 14 7 43 10 65 26 204 35 280 40 340 3 39 8 86 10 105 2 19
7 85 11 145 3 61 8 133 9 160 5 69 5 626 1 700 -13 215 -18 294 -21 320 -3 17
-7 71 -11 120 -3 50 -8 92 -9 95 -2 3 -6 37 -10 75 -3 39 -8 77 -10 85 -2 8
-7 38 -10 65 -6 44 -35 227 -51 310 -113 616 -324 1284 -576 1825 -107 227
-256 519 -304 592 -13 21 -24 40 -24 43 0 10 -191 317 -281 452 -289 431 -591
797 -980 1183 -199 198 -218 216 -385 360 -178 155 -242 207 -424 343 -63 48
-120 91 -127 96 -35 30 -397 269 -508 336 -154 92 -171 102 -336 193 -478 263
-1144 529 -1669 666 -52 14 -131 34 -175 46 -44 11 -92 23 -107 25 -16 3 -56
12 -90 20 -35 8 -79 17 -98 20 -19 3 -42 8 -50 10 -8 2 -26 6 -40 9 -14 2 -52
9 -85 15 -92 16 -160 27 -220 35 -22 3 -74 11 -115 17 -41 6 -91 12 -110 15
-83 9 -147 16 -180 18 -153 14 -214 19 -270 23 -79 6 -816 14 -821 9z"/>
</g>
</svg>
